<svg width="320" height="321" viewBox="0 0 320 321" fill="none" xmlns="http://www.w3.org/2000/svg">
<path d="M289.29 247.79C286.67 240.7 277.59 236.76 269.86 239.37C266.23 240.59 263.3 243.12 261.41 246.32C259.18 243.49 256.73 240.84 254.1 238.4C251.28 235.79 248.21 233.42 244.98 231.32C248.33 224.76 249.76 217.76 249.18 210.92C253.21 209.73 257.03 206.85 259.2 202.96C260.11 201.33 262.87 195.6 260.19 190.03C259.61 188.83 258.83 187.74 257.85 186.77C258.17 184.5 258.08 181.7 256.82 178.77C255.51 175.72 253.46 173.71 251.73 172.46C251.08 168.61 248.84 164.99 245.35 162.23C244.75 161.76 244.14 161.34 243.53 160.98C247.35 158.8 250.73 156.09 253.6 152.88C256.19 149.99 264.08 141.18 263.97 129.45C263.95 127.4 263.68 125.55 263.45 123.92C262.99 120.74 262.65 118.43 264.17 116.04C264.63 115.32 265.11 114.82 265.66 114.24C266.45 113.42 267.34 112.48 268.3 110.82C269.88 108.09 270.71 104.94 270.81 101.47C274.21 99.0301 275.19 93.6001 274.91 89.0001C274.56 83.1601 272.03 75.6801 266.04 73.8401C263.28 73.0101 260.7 73.6101 258.87 74.3601C258.82 74.3001 258.77 74.2301 258.72 74.1701C254.2 69.0501 248.54 68.2201 243.37 71.8501C242.74 71.5901 242.08 71.3601 241.37 71.2401C238.57 70.7401 235.52 71.5201 232.79 73.4401C226.56 77.8101 226.71 86.2001 226.75 88.9601C226.82 92.7501 227.79 96.0301 229.01 98.6901C228.05 98.4901 227.01 98.3101 225.94 98.1601C224.49 91.6101 218.68 86.6701 211.71 86.5901C211.7 86.5901 211.69 86.5901 211.68 86.5901C211.08 76.1401 204.97 66.8101 195.38 61.9501C186.07 57.2301 175.31 57.6101 166.68 62.8401C164.48 57.9801 159.55 54.6801 154 54.6801C144.6 55.0501 140.32 62.1001 140.32 68.5001C140.32 74.5901 144.21 81.2801 152.78 82.2201C152.36 84.1901 152.14 86.1701 152.13 88.0801C147.92 88.3901 143.92 89.7401 140.4 91.9701C137.32 83.5301 129.22 77.5001 119.73 77.5001C115.16 77.5001 110.72 78.9301 107.01 81.5701C101.4 75.2201 93.4599 71.6101 84.9499 71.6101C76.4299 71.5301 68.3399 75.2501 62.6599 81.8101C57.4899 87.7701 54.9399 95.4001 55.4899 103.03C46.4499 104.08 39.4099 111.78 39.4099 121.14C39.6199 131.9 47.3399 137.87 54.8899 139C55.6699 139.12 56.4799 139.18 57.2899 139.19L59.3599 145.8C57.4099 147.2 54.9099 149.51 53.1799 152.98C48.8199 155.72 44.8999 159.14 41.6399 163.12C30.7199 176.59 27.8899 193.79 34.0599 209.13C40.1299 224.21 53.6799 234.58 70.4499 237.08C73.2699 251.01 87.8099 261.24 100.01 261.94C100.98 262.05 101.91 262.11 102.8 262.11C104.3 262.11 105.7 261.95 106.97 261.64C106.59 268.65 105.13 274.74 102.23 281.55C100.71 285.16 98.9899 288.1 96.8099 291.81C96.0699 293.06 95.2999 294.39 94.4699 295.84C92.5999 299.13 92.6099 303.05 94.5099 306.32C96.4099 309.59 99.7999 311.54 103.57 311.54H126.09C127.56 311.54 134.58 311.24 138.54 305.69C142.44 300.24 141.58 290.18 134.59 284.88C131.55 282.57 127.83 281.57 124.14 281.79C126.16 275.32 127.51 266.34 127.33 260.04C133.26 259.79 139.08 258.51 144.5 256.24C151.39 265.93 156.36 280.3 156.89 292.26C157.18 296.48 159.65 300.03 163.49 301.76C164.99 302.43 166.56 302.77 168.11 302.77C170.51 302.77 172.87 301.98 174.89 300.42L178.47 297.67C178.12 300 178.49 302.42 179.64 304.57C181.59 308.21 185.22 310.38 189.36 310.38H211.09C212.53 310.38 219.58 310.08 223.55 304.53C227.95 298.38 226.1 288.66 219.6 283.72C216.55 281.4 212.81 280.4 209.1 280.64C210.18 277.21 211 273.7 211.55 270.15C212.25 265.62 212.48 261.01 212.29 256.43C219.45 254.86 226.37 251.43 232.26 246.68C243.01 254.33 251.62 267.38 255.19 276.64C256.85 280.64 260.4 283.29 264.69 283.73C265.09 283.77 265.5 283.79 265.9 283.79C269.67 283.79 273.11 281.97 275.27 278.78L287.06 261.41C287.84 260.27 291.62 254.24 289.23 247.79H289.29ZM265.15 279.75C262.35 279.46 260.03 277.73 258.96 275.15C255.79 266.94 248.83 255.85 239.9 247.68C238.46 246.36 236.97 245.12 235.43 243.98C238.33 241.23 240.88 238.14 243 234.8C245.97 236.75 248.79 238.93 251.4 241.34C254.43 244.14 257.19 247.26 259.64 250.6C259.14 252.49 258.97 254.48 259.16 256.5C259.2 256.94 259.25 257.38 259.33 257.83C259.52 258.92 260.55 259.65 261.64 259.45C262.73 259.26 263.46 258.22 263.27 257.14C262.2 251.04 265.59 245.03 271.15 243.16C276.92 241.21 283.65 244.03 285.55 249.18C287.29 253.89 284.19 258.63 283.82 259.16L272.02 276.54C270.47 278.83 267.9 280.03 265.16 279.75H265.15ZM217.24 286.91C222.09 290.59 223.54 297.74 220.35 302.2C217.44 306.28 211.76 306.39 211.12 306.38H189.41C186.77 306.38 184.45 305 183.21 302.68C181.96 300.33 182.09 297.6 183.56 295.36C184.27 294.42 185.02 293.32 185.77 292.08L191.93 287.34C192.93 286.58 197.51 282.77 198.18 276.94C198.25 276.34 198.29 275.72 198.27 275.08C198.21 273.34 197.75 271.65 197.01 270.08C196.55 269.1 195.98 268.17 195.31 267.3C195.55 266.12 195.76 264.93 195.94 263.75C196.26 261.54 196.45 259.36 196.49 257.23C198.34 257.45 200.19 257.57 202.04 257.57C204.16 257.57 206.27 257.42 208.38 257.13C208.52 261.27 208.29 265.43 207.66 269.52C207.03 273.61 206 277.64 204.62 281.54C202.78 282.19 201.03 283.17 199.47 284.47C199.13 284.75 198.8 285.04 198.47 285.35C197.68 286.12 197.66 287.39 198.43 288.18C199.2 288.97 200.47 288.99 201.26 288.22C202.86 286.67 204.77 285.62 206.78 285.05C206.78 285.05 206.79 285.05 206.8 285.05C210.38 284.05 214.26 284.62 217.25 286.89L217.24 286.91ZM165.17 298.12C162.69 297.01 161.1 294.71 160.92 292.04C160.45 281.48 156.88 269.51 151.49 259.8C150.47 257.95 149.37 256.2 148.22 254.54C151.87 252.67 155.26 250.43 158.31 247.88C162.47 253.13 167.33 262.25 169.24 268.44C168.16 270.09 167.36 271.95 166.91 273.95C166.81 274.38 166.72 274.81 166.66 275.25C166.5 276.34 167.26 277.36 168.35 277.52C169.44 277.68 170.46 276.92 170.62 275.83C171.52 269.71 176.62 265.06 182.48 265.02H182.55C185.75 265.02 188.78 266.36 190.96 268.42C191.54 268.97 192.06 269.57 192.5 270.21C193.11 271.09 193.59 272.05 193.89 273.06C194.1 273.77 194.24 274.5 194.26 275.25C194.41 279.42 191.38 282.56 190.05 283.72C189.78 283.96 189.58 284.12 189.49 284.19L186.67 286.36L182.71 289.4L172.48 297.27C170.34 298.91 167.61 299.23 165.16 298.13L165.17 298.12ZM132.2 288.07C137.24 291.9 138.02 299.57 135.31 303.36C132.39 307.44 126.72 307.57 126.08 307.54H103.59C101.26 307.54 99.1599 306.33 97.9899 304.31C96.8099 302.28 96.7999 299.86 97.9599 297.82C98.7799 296.38 99.5499 295.07 100.28 293.83C102.44 290.14 104.31 286.95 105.93 283.11C108.37 277.4 109.83 272.16 110.55 266.55C110.83 264.4 111 262.19 111.06 259.88C111.35 259.68 111.62 259.48 111.89 259.25C112.14 259.03 112.38 258.8 112.61 258.57C116.17 259.44 119.78 259.94 123.37 260.07C123.57 266.62 121.91 276.72 119.64 282.7C117.76 283.36 115.97 284.36 114.37 285.7C114.05 285.97 113.73 286.24 113.43 286.53C112.64 287.3 112.62 288.57 113.39 289.36C114.16 290.15 115.43 290.17 116.22 289.4C117.81 287.86 119.71 286.81 121.71 286.24C121.72 286.24 121.74 286.24 121.75 286.23C125.33 285.22 129.22 285.8 132.22 288.07H132.2ZM100.42 257.97C100.42 257.97 100.34 257.97 100.3 257.96C86.3099 257.18 75.2599 244.97 74.0899 234.49C74.0199 233.83 73.6199 233.25 73.0399 232.95C71.1199 231.93 69.0799 230.44 67.1599 228.57C64.7099 226.19 62.4799 223.19 60.9799 219.8C60.4499 218.61 60.0099 217.38 59.6899 216.1C58.3099 210.6 59.1399 205.13 62.1699 199.81C62.1699 199.79 62.1899 199.78 62.1899 199.76C65.0299 201.6 68.5999 202.69 71.9799 202.83C70.0899 206.53 70.4199 210.32 71.9299 212.96C74.0999 216.75 78.4199 218.27 83.2699 216.88C83.7299 216.73 84.1299 216.55 84.4899 216.37C85.6299 215.77 86.3099 215.02 86.9299 214.33C87.3899 213.82 87.8199 213.35 88.4999 212.84C92.7899 209.66 99.4499 211.46 107.16 213.55C109.23 214.11 110.4 214.59 111.1 215.65C112.05 217.12 112.01 219.24 111 220.58C110.21 221.64 109.02 221.93 107.48 221.47C107.43 221.45 107.37 221.44 107.31 221.43C104.96 220.93 103.22 220.07 101.68 219.31C99.6199 218.28 97.6799 217.32 95.6499 218.4C94.5099 218.98 93.7599 219.93 93.4799 221.13C93.0399 223.01 93.9199 224.91 94.4799 225.7C96.6499 228.96 101.46 228.97 103.79 228.97H103.81C106.17 228.97 107.78 228.62 109.19 228.3C110.81 227.94 111.98 227.68 113.99 228.05C115.98 228.41 116.82 229.05 117.13 229.28C118.85 230.54 119.57 232.16 119.17 233.86C118.66 236 116.59 237.73 114.02 238.16C113.96 238.16 113.91 238.18 113.85 238.2C111.36 238.84 107.84 238.53 105.33 238.16C103.01 237.82 100.69 237.29 98.4199 236.61C97.8199 236.43 97.2099 236.24 96.6099 236.04C95.5599 235.68 94.4299 236.24 94.0699 237.29C93.7099 238.34 94.2699 239.47 95.3199 239.83C97.0799 240.43 98.8799 240.93 100.68 241.34C101.07 241.43 101.46 241.52 101.85 241.6C102.81 241.8 103.78 241.98 104.75 242.12C108.89 242.73 112.26 242.72 114.77 242.09C115.87 241.9 116.91 241.54 117.86 241.06C118.33 241.84 118.54 242.66 118.46 243.49C118.32 244.88 117.39 246.18 115.8 247.2C114.42 248.15 112.81 248.66 111.09 248.86C109.72 249.02 108.27 248.98 106.81 248.79C101.15 248.07 95.2099 245.2 92.1399 243.53C91.1699 243 89.9599 243.36 89.4299 244.33C88.8999 245.3 89.2599 246.51 90.2299 247.04C94.9399 249.6 102.44 252.96 109.34 252.96C109.45 252.96 109.56 252.96 109.68 252.96C110.23 252.96 110.77 252.92 111.31 252.87C111.16 253.44 110.96 253.97 110.7 254.44C110.34 255.12 109.87 255.71 109.3 256.2C107.43 257.79 104.28 258.42 100.43 257.96L100.42 257.97ZM55.4999 135.05C50.0399 134.23 43.5999 130.08 43.4199 121.11C43.4199 113.76 49.0399 107.7 56.1499 106.99C56.7499 108.79 57.5699 110.51 58.5799 112.12C59.6999 113.88 61.0399 115.49 62.5799 116.9C62.9599 117.25 63.4499 117.43 63.9299 117.43C64.4699 117.43 65.0099 117.21 65.4099 116.78C66.1599 115.97 66.0999 114.7 65.2899 113.95C64.0099 112.78 62.8899 111.44 61.9599 109.98C60.9799 108.43 60.2299 106.75 59.7199 104.99C59.7199 104.87 59.7199 104.75 59.7099 104.63C58.6199 97.4401 60.8099 90.0801 65.6999 84.4401C70.5699 78.8301 77.4899 75.6201 84.7499 75.6201C92.1399 75.5601 99.0499 78.6501 103.94 84.1401C102.71 85.3301 101.65 86.6701 100.79 88.1701C99.6099 90.2201 98.8399 92.4501 98.5099 94.7901C98.3499 95.8801 99.1099 96.9001 100.21 97.0501C100.31 97.0601 100.4 97.0701 100.49 97.0701C101.47 97.0701 102.33 96.3501 102.47 95.3501C102.73 93.5101 103.33 91.7701 104.26 90.1601C105.21 88.5201 106.45 87.1001 107.96 85.9301C107.98 85.9201 107.99 85.9001 108 85.8901C108.01 85.8801 108.03 85.8701 108.04 85.8601C111.31 83.0501 115.47 81.5001 119.76 81.5001C127.95 81.5001 134.87 87.0101 137.04 94.5201C137.25 95.2501 137.41 96.0101 137.53 96.7701C137.66 97.6501 137.76 98.5401 137.76 99.4601C137.76 99.4801 137.76 99.5001 137.76 99.5201C137.77 100.55 137.68 101.57 137.53 102.55C137.41 103.29 137.25 104.01 137.04 104.71C136.79 105.54 136.49 106.34 136.12 107.12C135.22 109.04 133.96 110.79 132.39 112.29C131.75 112.9 131.06 113.47 130.32 114C129.7 114.44 129.04 114.84 128.35 115.22C128.22 115.29 128.1 115.36 127.97 115.43C122.53 118.23 116.29 118.15 111.2 115.34C110.58 115 109.97 114.62 109.39 114.19C109.26 114.1 109.12 114.02 108.98 113.97C108.61 113.82 108.21 113.77 107.81 113.85C107.26 113.96 106.78 114.3 106.49 114.78C105.91 115.75 105.26 116.66 104.55 117.52C98.5099 124.86 88.1599 128.19 78.9699 125.95C77.8699 125.68 76.7999 125.34 75.7399 124.91C75.1499 124.67 74.5699 124.41 73.9899 124.12C73.4699 123.85 72.8599 123.83 72.3199 124.05C71.7799 124.27 71.3599 124.72 71.1799 125.27C71.0299 125.72 70.8599 126.15 70.6899 126.57C70.2899 127.5 69.8399 128.36 69.3199 129.13C67.0299 132.54 63.6499 134.38 60.1999 134.97C59.5199 135.09 58.8399 135.15 58.1699 135.17C57.4499 135.19 56.7399 135.17 56.0499 135.08C55.8799 135.06 55.6999 135.05 55.5299 135.02L55.4999 135.05ZM154.11 92.0201H154.21C154.77 92.0201 155.31 91.7901 155.69 91.3801C156.07 90.9701 156.26 90.4201 156.22 89.8601C155.99 87.0001 156.36 83.8801 157.29 80.8401C157.49 80.2001 157.35 79.5001 156.92 78.9801C156.49 78.4601 155.84 78.2001 155.16 78.2701C154.8 78.3101 154.44 78.3301 154.18 78.3301C147.38 78.0601 144.34 73.2001 144.34 68.5101C144.34 63.8201 147.38 58.9601 154.1 58.6901C158.25 58.6901 161.94 61.3601 163.32 65.1801C161.06 67.0301 158.49 70.2701 157.66 72.4701C157.27 73.5001 157.8 74.6601 158.83 75.0401C159.06 75.1301 159.3 75.1701 159.53 75.1701C160.34 75.1701 161.1 74.6701 161.4 73.8701C162.02 72.2201 164.83 68.7501 166.63 67.7001C166.67 67.6801 166.7 67.6501 166.74 67.6201C166.76 67.6001 166.79 67.5901 166.82 67.5801C174.55 61.8601 184.8 61.0701 193.58 65.5301C202.44 70.0301 207.72 78.5101 207.74 88.2501C207.66 88.8501 207.82 89.4401 208.2 89.9101C209.04 90.9401 210.28 90.7501 211.01 90.6401C211.11 90.6201 211.21 90.6101 211.3 90.6001C211.38 90.6101 211.46 90.6201 211.55 90.6201C216.24 90.6201 220.23 93.6401 221.7 97.8401C218.77 97.7801 215.97 98.1801 214.14 99.4901C213.96 99.6101 213.79 99.7301 213.62 99.8601C212.51 100.69 211.51 101.81 210.77 103.1C210.31 103.89 209.95 104.75 209.72 105.65C209.28 107.34 209.3 109.17 210.03 110.96C210.19 111.34 210.38 111.71 210.59 112.06C208.03 111.87 205.3 110.77 203.21 108.15C203.04 107.94 202.87 107.72 202.71 107.49C202.41 107.06 201.96 106.78 201.46 106.68C201.4 106.67 201.34 106.65 201.27 106.64C200.69 106.59 200.11 106.78 199.69 107.18C199.58 107.29 199.46 107.39 199.34 107.49C194.56 111.87 188.4 114.28 181.95 114.28C181.86 114.28 181.76 114.28 181.67 114.28C181.13 114.28 180.58 114.24 179.99 114.19C179.99 113.75 179.97 113.28 179.94 112.8C179.73 109.46 178.88 105.32 177.54 102.71C177.03 101.73 175.83 101.34 174.85 101.85C173.87 102.36 173.48 103.56 173.99 104.55C175.19 106.87 176 111.44 176 114.32C176 114.83 175.98 115.3 175.92 115.68C175.92 115.7 175.92 115.72 175.92 115.73C175.92 115.74 175.92 115.76 175.91 115.78C175.89 116.03 175.84 116.28 175.81 116.53C175.72 117.31 175.58 118.08 175.4 118.83C173.13 128.52 164.35 135.74 154.16 135.74C152.88 135.74 151.63 135.62 150.41 135.41L148.26 129.24L147.6 127.35L146.94 125.46L140.5 106.97C141.35 104.62 141.78 102.12 141.76 99.5401C141.76 98.3801 141.67 97.2301 141.49 96.1201C145.16 93.4901 149.53 92.0601 154.13 92.0601L154.11 92.0201ZM232.47 103.72L238.39 105.8L234.76 100.68C232.98 98.1701 230.84 94.0901 230.75 88.9001C230.71 86.4301 230.59 79.8801 235.09 76.7301C236.94 75.4301 238.92 74.8901 240.67 75.2001C241.44 75.3401 242.12 75.6501 242.76 76.0601C243.12 76.3101 243.45 76.5601 243.75 76.8301C243.79 76.8701 243.84 76.9101 243.89 76.9501C243.92 76.9801 243.95 77.0101 243.98 77.0401C245.08 78.1401 245.94 79.5801 246.61 81.0401C246.65 81.1201 246.68 81.2001 246.72 81.2901C246.82 81.5201 246.92 81.7501 247.01 81.9701C247.04 82.0501 247.07 82.1301 247.11 82.2101C247.18 82.3901 247.25 82.5701 247.32 82.7501C247.37 82.9001 247.43 83.0501 247.48 83.2001C247.53 83.3501 247.59 83.5001 247.64 83.6501C247.67 83.7301 247.7 83.8201 247.72 83.9001C247.85 84.2801 247.97 84.6901 248.09 85.1001C248.25 85.6401 248.38 86.1201 248.47 86.4801C248.57 86.8401 248.67 87.2301 248.77 87.6201C249.26 89.7301 249.56 91.8401 249.45 93.4201C249.43 93.6601 249.41 93.8901 249.37 94.1101C249.24 94.6701 249.01 95.1801 248.69 95.6201L248.06 96.2201C246.36 97.4501 244.41 97.6001 242.63 96.5901C240.76 95.5301 239.13 93.0501 239.52 89.8701C239.53 89.7501 239.53 89.6301 239.55 89.5101C239.73 88.4201 239 87.3901 237.91 87.2101C236.82 87.0301 235.79 87.7601 235.61 88.8501C234.85 93.4101 236.87 97.9201 240.65 100.08C243.74 101.84 247.36 101.6 250.3 99.5301C251.61 100.2 252.96 100.53 254.33 100.53C255.86 100.53 257.4 100.11 258.91 99.2801C259.69 100.47 260.8 101.46 262.15 102.12C263.37 102.72 264.7 103.01 266.02 103.01C266.25 103.01 266.47 102.99 266.7 102.97C266.45 105.15 265.83 107.12 264.83 108.86C264.11 110.11 263.46 110.79 262.77 111.51C262.13 112.18 261.46 112.87 260.79 113.94C258.48 117.59 258.97 120.96 259.49 124.54C259.72 126.12 259.96 127.75 259.97 129.53C260.07 139.71 252.96 147.65 250.62 150.26C247.34 153.92 243.32 156.88 238.67 159.04C237.58 158.78 236.29 158.6 235.1 158.53C235.1 158.53 235.1 158.53 235.09 158.53L231.87 147.02C232.91 146.64 233.92 146.18 234.88 145.66C242.7 141.53 246.57 133.02 247.5 127C248.28 121.96 247.29 117.61 244.8 115.08C242.14 112.32 239.49 111.87 237.01 111.66C235.26 111.51 230.68 111.8 225.83 112.12C224.58 112.2 223.33 112.28 222.14 112.35C221.88 112.37 221.62 112.38 221.37 112.4C220.93 112.43 220.51 112.45 220.1 112.47C219.84 112.48 219.57 112.5 219.33 112.51C218.88 112.52 218.44 112.48 218.01 112.42C217.99 112.42 217.98 112.42 217.96 112.42C216.98 112.26 216.08 111.91 215.35 111.41C214.61 110.9 214.03 110.25 213.72 109.48C212.81 107.23 214.03 104.91 215.5 103.52C215.79 103.25 216.09 103.01 216.38 102.81C216.62 102.64 216.92 102.51 217.26 102.39C217.81 102.19 218.47 102.05 219.22 101.97C220.13 101.87 221.17 101.85 222.27 101.9C222.92 101.93 223.59 101.98 224.26 102.05C224.92 102.12 225.59 102.2 226.25 102.3C228.53 102.64 230.76 103.17 232.46 103.76L232.47 103.72ZM255.72 76.8401C255.92 77.0701 256.11 77.3101 256.3 77.5601L256.65 78.0501C258.67 80.9001 261.81 89.0101 258.25 94.9001C258.22 94.9301 258.2 94.9601 258.18 94.9801C257.63 95.4001 257.1 95.7201 256.58 95.9601C255.31 96.5601 254.1 96.6601 252.9 96.2601C252.92 96.2001 252.94 96.1301 252.96 96.0601C253.1 95.6501 253.2 95.2201 253.28 94.7701C253.64 92.7401 253.45 90.3801 253.01 88.1301C252.7 86.5401 252.27 85.0001 251.86 83.6901C251.32 81.9901 250.79 80.6601 250.53 80.0501H250.56V80.0401C249.49 77.5201 248.41 75.7701 246.99 74.3501C250.73 72.5501 253.74 74.5701 255.72 76.8201V76.8401ZM261.27 77.7701C262.33 77.4501 263.6 77.3001 264.88 77.6901C268.62 78.8401 270.63 84.5001 270.92 89.2701C271.19 93.8401 270 97.6401 267.95 98.5601C266.72 99.1601 265.21 99.1401 263.92 98.5101C263.37 98.2401 262.49 97.6601 262.01 96.6001C262 96.5701 261.98 96.5501 261.97 96.5201C265.74 89.7801 263.27 81.9501 261.16 77.8101C261.2 77.8001 261.25 77.7901 261.29 77.7801L261.27 77.7701ZM256.57 191.77C258.41 195.6 256.37 199.81 255.69 201.01C254.16 203.75 251.42 205.88 248.57 206.88C247.91 207.11 247.24 207.29 246.58 207.39C245.91 207.5 245.25 207.53 244.61 207.49C244.07 207.46 243.55 207.37 243.05 207.22C242.49 207.05 240.99 206.61 239.93 205.21C239.07 204.07 238.71 202.78 238.92 201.59C239.02 201.06 239.21 200.6 239.44 200.22C239.45 200.2 239.46 200.17 239.48 200.15C240.55 200.38 241.63 200.48 242.71 200.47C243.16 200.47 243.61 200.45 244.06 200.4C244.29 200.38 244.51 200.34 244.74 200.31C245.42 200.21 246.08 200.06 246.7 199.88C250.25 198.82 252.67 196.61 253.92 195.21C254.92 194.09 255.76 192.82 256.41 191.46C256.41 191.47 256.42 191.49 256.43 191.5C256.48 191.59 256.52 191.68 256.57 191.77ZM192.48 256.6C192.48 259 192.23 261.51 191.82 264.04C189.16 262.16 185.92 261.01 182.53 261.01H182.43C178.61 261.03 175.04 262.51 172.25 264.95C169.83 258.43 165.28 250.2 161.25 245.18C163.13 243.34 164.86 241.38 166.4 239.32C169.98 245.46 175.38 250.35 181.93 253.22C185.43 254.75 188.95 255.87 192.47 256.6H192.48ZM104.82 224.95C104.49 224.97 104.14 224.99 103.77 224.98C102.14 224.98 98.7599 224.98 97.7799 223.48C97.7599 223.45 97.7399 223.42 97.7199 223.39C97.4699 223.04 97.2499 222.24 97.3599 222.03C97.3599 222.03 97.3799 222 97.4999 221.95C97.5199 221.95 97.5399 221.95 97.5599 221.95C97.9599 221.95 99.1099 222.52 99.8799 222.91C101.14 223.54 102.77 224.35 104.83 224.95H104.82ZM77.0999 202.42C78.2699 206.07 79.4599 209.72 80.6599 213.34C78.3299 213.61 76.3999 212.78 75.3699 210.99C74.1699 208.89 74.2899 205.49 77.0899 202.42H77.0999ZM77.7199 197.82C77.1099 198.07 76.4799 198.27 75.8099 198.42C74.3899 198.75 72.8699 198.87 71.3399 198.77C68.4499 198.5 65.2399 197.4 62.9399 195.36C62.9199 195.34 62.8999 195.33 62.8799 195.32C61.1199 193.75 59.3599 191.4 59.1999 188.46C59.1999 188.44 59.1999 188.42 59.1999 188.4C60.4599 189.21 61.7899 189.85 63.1599 190.3C64.2099 190.65 65.2899 190.89 66.3799 191.02C68.6499 191.3 70.9899 191.1 73.2999 190.42C73.9399 190.23 74.5699 190.01 75.1999 189.75C75.4899 189.63 75.7699 189.51 76.0599 189.38C76.3799 189.21 76.6899 189.03 76.9999 188.84C78.1499 188.14 79.2099 187.3 80.1599 186.32C80.1899 186.33 80.2099 186.35 80.2399 186.36C80.7199 186.58 81.2299 186.9 81.6899 187.38C84.9299 191.21 81.5299 195.12 81.3499 195.32C80.8499 195.92 80.2299 196.43 79.5399 196.88C78.9899 197.24 78.3799 197.55 77.7399 197.81L77.7199 197.82ZM49.7199 188.74C50.1799 185.77 51.1099 182.92 52.4399 180.27C53.1699 182.15 54.2199 183.87 55.5099 185.34C54.4199 190.14 56.3799 194.27 59.0599 197.17C56.7499 201.02 55.4299 205.05 55.1099 209.1C50.5199 203.47 48.5599 196.25 49.7299 188.74H49.7199ZM77.9899 182.74C77.9899 182.74 77.9699 182.75 77.9699 182.76C77.2999 183.57 76.5499 184.27 75.7499 184.86C75.2799 185.21 74.7899 185.53 74.2899 185.79C74.1899 185.84 74.0999 185.87 74.0099 185.91C73.3599 186.2 72.7299 186.43 72.1199 186.61C70.7299 187.02 69.4099 187.19 68.1899 187.16C66.8699 187.1 65.5299 186.86 64.2399 186.43C61.8899 185.59 60.1299 184.21 59.1499 183.3C57.2799 181.38 55.7399 178.64 55.4399 175.5C55.3599 174.67 55.3599 173.81 55.4699 172.94C55.4699 172.92 55.4699 172.91 55.4699 172.89C55.8499 173.29 56.2499 173.66 56.6599 174.01C57.7899 174.99 59.0399 175.8 60.3499 176.45C63.1999 177.85 66.3699 178.44 69.4299 178.07C70.0999 177.99 70.7599 177.85 71.4099 177.68C72.0499 177.51 72.6799 177.3 73.2999 177.03C73.5799 176.91 73.8499 176.78 74.1199 176.64C74.1299 176.64 74.1399 176.64 74.1499 176.63C74.2199 176.59 74.2999 176.56 74.3699 176.53C74.4099 176.51 74.4499 176.48 74.4799 176.45C75.4599 175.87 76.3599 175.16 77.1499 174.33C77.1599 174.34 77.1699 174.35 77.1799 174.36C78.2999 175.38 78.9799 176.63 79.1699 178.05C79.3799 179.62 78.9499 181.29 77.9799 182.76L77.9899 182.74ZM223.23 116.25C224.16 116.19 225.11 116.13 226.07 116.07C230.35 115.79 235.2 115.48 236.65 115.61C238.97 115.81 240.34 116.2 241.92 117.84C243.51 119.46 244.11 122.64 243.53 126.36C242.67 131.87 239.08 138.88 232.97 142.11C232.26 142.5 231.52 142.83 230.76 143.12L223.22 116.26L223.23 116.25ZM249.95 182.13C250.06 181.94 250.16 181.74 250.26 181.55C250.3 181.46 250.34 181.38 250.39 181.29C250.44 181.18 250.5 181.08 250.54 180.97C250.55 180.94 250.56 180.91 250.57 180.88C251.01 179.89 251.35 178.85 251.57 177.77C251.57 177.77 251.57 177.78 251.58 177.79C252.16 178.51 252.7 179.35 253.13 180.35C254.21 182.87 254.09 185.29 253.71 187.1C253.39 188.53 252.65 190.62 250.96 192.53L250.92 192.58C249.99 193.62 248.19 195.23 245.62 196.01C245.01 196.2 244.36 196.35 243.66 196.43C242.97 196.5 242.28 196.5 241.58 196.43C240.85 196.36 240.13 196.22 239.41 196C238.13 195.47 236.64 194.51 235.98 192.78C235.53 191.62 235.6 190.46 235.8 189.55C235.8 189.54 235.8 189.52 235.8 189.51C236.8 189.72 237.81 189.8 238.82 189.75C238.84 189.75 238.87 189.75 238.89 189.75C239.16 189.73 239.42 189.7 239.68 189.67C240.36 189.58 241.01 189.44 241.64 189.25C242.29 189.05 242.91 188.8 243.51 188.5C246.36 187.07 248.53 184.64 249.87 182.27C249.9 182.22 249.92 182.18 249.95 182.13ZM247.86 173.82C247.97 175.74 247.65 177.61 246.92 179.25C246.83 179.45 246.74 179.65 246.64 179.85C246.61 179.9 246.59 179.95 246.56 180C246.51 180.1 246.45 180.2 246.39 180.3C245.97 181.02 245.43 181.75 244.74 182.44C244.23 182.95 243.39 183.7 242.34 184.36C241.79 184.71 241.18 185.02 240.52 185.27C239.91 185.5 239.25 185.67 238.57 185.74C238.5 185.74 238.43 185.76 238.36 185.76C237.34 185.78 236.32 185.6 235.3 185.2C233.46 184.36 231.24 182.49 231.14 179.78C231.05 177.25 232.71 174.9 235.21 173.77C235.77 173.52 236.37 173.32 237 173.2C237.04 173.2 237.08 173.17 237.12 173.16C237.62 173.03 238.06 172.72 238.33 172.28C238.55 171.92 238.65 171.51 238.62 171.1C238.62 170.96 238.59 170.82 238.55 170.68L236.24 162.62C236.94 162.72 237.62 162.85 238.16 163C238.22 163.02 238.28 163.03 238.34 163.05L238.67 163.15C240.03 163.59 241.47 164.28 242.85 165.37C244.28 166.5 247.43 169.45 247.85 173.81L247.86 173.82ZM60.6199 149.88L60.7999 150.46L63.4599 158.95C63.6299 159.49 64.0099 159.93 64.5199 160.16C64.9299 160.35 65.3899 160.39 65.8199 160.29C65.8699 160.28 65.9099 160.26 65.9599 160.25C66.0199 160.23 66.0799 160.22 66.1299 160.2C66.6999 159.96 67.2899 159.8 67.8799 159.68C71.0199 159.08 74.1899 160.25 75.7099 162.77C77.2999 165.39 76.3699 168.53 75.1599 170.46C74.4499 171.46 73.5999 172.26 72.6799 172.85C72.4899 172.96 72.2999 173.06 72.0999 173.16C71.4799 173.45 70.8399 173.64 70.1999 173.78C69.5099 173.92 68.8299 173.99 68.1699 174.01C66.7399 174.05 65.4599 173.86 64.6599 173.7C63.1399 173.39 61.8599 172.8 60.7999 172.14C60.3499 171.85 59.9199 171.54 59.5099 171.2C58.9999 170.78 58.5199 170.31 58.0799 169.8C57.6399 169.3 57.2299 168.77 56.8699 168.2C56.7399 168.01 56.6199 167.81 56.4999 167.61C54.2099 163.29 55.3299 158.61 55.9699 156.69C56.0799 156.37 56.1999 156.06 56.3199 155.76C56.8399 154.49 57.4999 153.38 58.2199 152.44C58.9999 151.41 59.8399 150.56 60.6399 149.89L60.6199 149.88ZM52.5099 168.59C51.7599 170.52 51.3899 172.44 51.3699 174.31C48.5199 178.4 46.5599 183.13 45.7799 188.13C44.1899 198.34 47.6099 208.11 55.1399 214.94C55.2199 215.01 55.2999 215.07 55.3899 215.12C55.4999 215.78 55.6299 216.43 55.7899 217.08C57.3199 223.16 60.8399 228.13 64.6399 231.71C52.2899 228.04 42.5099 219.42 37.7699 207.64C32.1499 193.66 34.7599 177.96 44.7399 165.65C46.6899 163.27 48.8999 161.11 51.2999 159.19C50.9399 161.83 50.9999 165.23 52.5199 168.59H52.5099ZM114.8 254.99C115.15 254.03 115.4 252.99 115.52 251.85C116.37 251.5 117.19 251.08 117.97 250.55C120.56 248.9 122.14 246.54 122.41 243.91C122.6 242.07 122.11 240.24 121.02 238.63C122 237.52 122.7 236.21 123.04 234.79C123.81 231.52 122.48 228.26 119.49 226.08C118.22 225.12 116.65 224.48 114.68 224.12C114.2 224.03 113.75 223.97 113.33 223.93C113.63 223.65 113.91 223.34 114.17 223C116.17 220.34 116.28 216.33 114.42 213.48C112.88 211.14 110.49 210.33 108.17 209.71C99.8199 207.44 91.9299 205.3 86.0799 209.65C85.2499 210.26 84.6799 210.85 84.2099 211.36C83.0499 207.86 81.8999 204.34 80.7699 200.81C82.1499 200.05 83.3699 199.09 84.3499 197.94C87.1999 194.73 88.5199 189.23 84.6699 184.74C84.6499 184.71 84.6299 184.69 84.5999 184.66C83.8799 183.91 83.1099 183.37 82.3599 182.97C83.0899 181.21 83.3799 179.32 83.1399 177.5C82.7999 174.96 81.4799 172.71 79.3999 171C80.7899 167.94 81.1499 164.06 79.1199 160.71C76.6499 156.63 71.5599 154.74 66.6699 155.85L64.0799 147.58L63.5999 146.04L61.3499 138.85C66.4899 137.84 71.4299 134.64 74.1299 128.62C86.1899 133.54 101.17 129.2 108.73 118.58C114.79 122.14 122.26 122.47 128.87 119.41C129.17 119.27 129.46 119.14 129.75 118.99C130.08 118.82 130.39 118.64 130.71 118.46C131.34 118.1 131.95 117.71 132.53 117.3C134.67 115.78 136.48 113.93 137.92 111.84L143.15 126.87L143.81 128.76L144.47 130.65L145.64 134.01L146.5 136.47L147.31 138.8L166.67 194.37C167 195.36 167.35 196.34 167.7 197.32C168.62 199.91 169.49 202.36 170.05 204.92C171.24 210.28 171.32 215.92 170.27 221.23C169.65 224.51 168.52 227.72 166.98 230.79C166.57 231.59 166.14 232.39 165.67 233.17C165.25 233.88 164.81 234.57 164.35 235.26C159.62 242.29 152.59 248.25 144.15 252.05C135.12 256.14 124.78 257.16 114.78 254.99H114.8ZM210.18 252.8C201.33 254.52 192.37 253.43 183.53 249.56C177.16 246.77 172.01 241.8 168.9 235.57C171.48 231.3 173.31 226.72 174.21 221.99C175.36 216.15 175.27 209.94 173.97 204.06C173.36 201.26 172.41 198.58 171.48 195.98C171.14 195.02 170.8 194.06 170.47 193.07L151.84 139.6C152.59 139.67 153.35 139.71 154.12 139.71C166.72 139.71 177.53 130.39 179.6 118.14C180.41 118.21 181.18 118.25 181.92 118.25C188.84 118.25 195.47 115.86 200.79 111.48C204.4 115.35 209.68 116.93 214.93 115.66C216.21 116.18 217.64 116.45 219.13 116.46L227.4 145.95L232.05 162.57H232.06L232.33 163.52L234.12 169.91C229.87 171.59 226.97 175.6 227.14 179.95C227.27 183.53 229.47 186.32 232.06 188C231.6 189.6 231.32 191.86 232.24 194.24C232.91 195.99 234.15 197.47 235.79 198.58C235.44 199.25 235.15 200.02 234.99 200.91C234.58 203.22 235.2 205.61 236.74 207.65C237.97 209.28 239.71 210.43 241.91 211.09C242.95 211.4 244.04 211.54 245.15 211.54C245.16 211.54 245.18 211.54 245.19 211.54C245.72 218.45 243.94 225.55 239.97 232.09C237.62 235.95 234.61 239.45 231.15 242.46C230.98 242.61 230.81 242.76 230.64 242.9C224.72 247.91 217.55 251.46 210.18 252.82V252.8ZM190.19 149.5C190.18 147.86 191.23 146.53 192.55 146.52C193.87 146.51 194.95 147.83 194.96 149.46C194.97 151.1 193.92 152.43 192.6 152.44C191.28 152.45 190.2 151.13 190.19 149.5ZM199.12 149.42C199.11 147.78 200.16 146.45 201.48 146.44C202.8 146.43 203.88 147.75 203.89 149.38C203.9 151.01 202.85 152.35 201.53 152.36C200.21 152.37 199.13 151.05 199.12 149.42ZM146.35 165.34C146.42 165.26 146.48 165.18 146.55 165.1C151.49 159.41 149.82 152.95 146.11 149.31C144.43 147.67 142.57 146.7 140.69 146.27C139.96 146.1 139.24 146.02 138.51 146.01C137.82 146 137.14 146.05 136.46 146.16C134.06 146.57 131.82 147.73 130.07 149.37C130.04 149.4 130.01 149.43 129.98 149.46C123.77 156.06 113.84 157.81 107.18 156.11C104.21 155.45 101.16 155.97 98.5799 157.61C96.0099 159.24 94.2299 161.77 93.5599 164.74C92.1899 170.87 96.0599 176.98 102.19 178.36C105.63 179.13 109.16 179.52 112.69 179.53C112.99 179.53 113.28 179.54 113.58 179.54C117.19 179.54 120.92 179 124.6 178.01C124.64 178.01 124.67 178.03 124.71 178.03C124.88 178.03 125.05 178.01 125.22 177.96C125.48 177.89 125.71 177.77 125.91 177.62C132.28 175.7 138.41 172.44 143.31 168.22C143.87 167.74 144.42 167.24 144.94 166.74C145.42 166.28 145.88 165.82 146.33 165.34H146.35ZM143.41 162.63C142.97 163.1 142.5 163.57 142.02 164.02C141.5 164.51 140.97 164.99 140.42 165.45L131.92 153.17C132.24 152.87 132.56 152.57 132.86 152.25C134.43 150.79 136.08 150.11 137.66 150C138.4 149.95 139.12 150.01 139.81 150.18C140.69 150.4 141.52 150.79 142.25 151.3C142.63 151.56 142.98 151.85 143.3 152.17C145.29 154.12 146.32 157.13 145.01 160.17C144.69 160.91 144.23 161.66 143.61 162.39C143.54 162.47 143.48 162.55 143.41 162.63ZM126.1 173.35L122.35 159.01C124.58 158.22 126.77 157.13 128.82 155.71L137.23 167.86C133.85 170.16 130.04 172.03 126.1 173.35ZM112.79 175.53C112.79 175.53 112.76 175.53 112.74 175.53C111.82 175.53 110.89 175.49 109.97 175.43L109.84 160.6C112.53 160.85 115.49 160.71 118.5 160.08L122.26 174.45C119.06 175.22 115.85 175.61 112.79 175.53ZM103.09 174.46C99.1099 173.57 96.5999 169.6 97.4899 165.62C97.9199 163.69 99.0799 162.05 100.75 160.99C101.96 160.22 103.33 159.83 104.7 159.83C105.08 159.83 105.46 159.87 105.84 159.93L105.97 174.99C105.01 174.84 104.04 174.67 103.09 174.46ZM110.48 152.11C109.91 150.58 110.44 148.96 111.68 148.5C112.92 148.04 114.38 148.91 114.95 150.44C115.52 151.97 114.99 153.59 113.75 154.05C112.51 154.51 111.05 153.64 110.48 152.11ZM118.85 148.98C118.28 147.45 118.81 145.83 120.05 145.37C121.29 144.91 122.75 145.78 123.32 147.31C123.89 148.84 123.36 150.46 122.12 150.92C120.88 151.38 119.42 150.51 118.85 148.98ZM114.4 75.6101C123.38 75.6101 130.68 68.3101 130.68 59.3301C130.68 50.3501 123.38 43.0501 114.33 43.0501C103.25 43.4901 98.2099 51.7901 98.2099 59.3301C98.2099 66.8601 103.25 75.1701 114.41 75.6101H114.4ZM114.4 47.0501C121.17 47.0501 126.68 52.5601 126.68 59.3301C126.68 66.1001 121.17 71.6101 114.48 71.6101C106 71.2701 102.2 65.2001 102.2 59.3301C102.2 53.4601 106 47.3901 114.4 47.0501ZM140.91 49.5001C147.07 49.5001 152.08 44.4901 152.08 38.3301C152.08 32.1701 147.07 27.1601 140.84 27.1601C135.35 27.3801 129.8 31.2801 129.8 38.3301C129.8 45.3801 135.35 49.2801 140.92 49.5001H140.91ZM140.91 31.1601C144.86 31.1601 148.08 34.3801 148.08 38.3301C148.08 42.2801 144.86 45.5001 140.99 45.5001C136.02 45.3001 133.79 41.7601 133.79 38.3301C133.79 34.9001 136.02 31.3601 140.91 31.1601ZM113.18 31.1601C119.34 31.1601 124.35 26.1501 124.35 19.9901C124.35 13.8301 119.34 8.82007 113.11 8.82007C107.62 9.04007 102.07 12.9401 102.07 19.9901C102.07 27.0401 107.62 30.9401 113.19 31.1601H113.18ZM113.18 12.8201C117.13 12.8201 120.35 16.0401 120.35 19.9901C120.35 23.9401 117.13 27.1601 113.26 27.1601C108.29 26.9601 106.06 23.4201 106.06 19.9901C106.06 16.5601 108.29 13.0201 113.18 12.8201ZM207.73 160.31C207.73 160.31 207.71 160.3 207.7 160.29C205.15 159.15 203.08 160.03 201.41 160.74C200.37 161.18 199.38 161.65 198.25 161.6C196.55 161.6 195.5 160.66 193.8 159.01C191.92 157.18 189.59 154.91 185.44 154.55C184.11 154.43 181.46 154.44 178.67 155.77C174.18 157.91 171.4 162.32 171.02 167.88C170.55 174.79 173.96 181.67 179.74 185.46C182.47 187.15 185.83 188.03 189.4 188.03C191.14 188.03 192.92 187.82 194.71 187.4C200.78 185.98 206.03 182.3 209.06 177.38C209.98 176.02 213.16 169.96 211.84 165.13C211.25 162.97 209.83 161.3 207.73 160.32V160.31ZM181.9 182.07C177.35 179.09 174.65 173.62 175.02 168.13C175.29 164.05 177.26 160.86 180.4 159.36C181.89 158.65 183.32 158.49 184.33 158.49C184.62 158.49 184.88 158.5 185.09 158.52C187.82 158.76 189.3 160.2 191.01 161.87C192.8 163.61 194.82 165.58 198.22 165.6H198.27C200.21 165.6 201.74 164.95 202.97 164.43C204.54 163.76 205.17 163.56 206.05 163.95C207.08 164.44 207.7 165.15 207.98 166.19C208.82 169.26 206.49 174.06 205.7 175.21C203.17 179.3 198.83 182.32 193.79 183.51C189.36 184.55 185 184.02 181.89 182.09L181.9 182.07Z" fill="black"/>
</svg>
